<?xml version="1.0" encoding="UTF-8"?>
<svg xmlns="http://www.w3.org/2000/svg" version="1.1" baseProfile="full" width="600px" height="1050px" viewBox="0 0 600 1050">
<line x1="220" y1="170" x2="220" y2="20" style="stroke: black; stroke-width: 2" />
<line x1="70" y1="320" x2="220" y2="170" style="stroke: black; stroke-width: 2" />
<line x1="370" y1="320" x2="220" y2="170" style="stroke: black; stroke-width: 2" />
<line x1="70" y1="470" x2="70" y2="320" style="stroke: black; stroke-width: 2" />
<line x1="370" y1="470" x2="370" y2="320" style="stroke: black; stroke-width: 2" />
<line x1="70" y1="620" x2="70" y2="470" style="stroke: black; stroke-width: 2" />
<line x1="370" y1="620" x2="370" y2="470" style="stroke: black; stroke-width: 2" />
<line x1="20" y1="770" x2="70" y2="620" style="stroke: black; stroke-width: 2" />
<line x1="220" y1="770" x2="70" y2="620" style="stroke: black; stroke-width: 2" />
<line x1="420" y1="770" x2="370" y2="620" style="stroke: black; stroke-width: 2" />
<line x1="220" y1="920" x2="20" y2="770" style="stroke: black; stroke-width: 2" />
<line x1="220" y1="920" x2="220" y2="770" style="stroke: black; stroke-width: 2" />
<text x="230" y="20" fill="green" style="font-size: 18px">HP:0000001</text>
<text x="235" y="42" fill="green" style="font-size: 16px">0: [met:-|id:hit1|val:-]</text>
<text x="235" y="60" fill="green" style="font-size: 16px">2: [met:-|id:hit2|val:-]</text>
<text x="230" y="170" fill="green" style="font-size: 18px">HP:0000118</text>
<text x="235" y="192" fill="green" style="font-size: 16px">0: [met:-|id:hit1|val:-]</text>
<text x="235" y="210" fill="green" style="font-size: 16px">2: [met:-|id:hit2|val:-]</text>
<text x="80" y="320" fill="green" style="font-size: 18px">HP:0000119</text>
<text x="85" y="342" fill="green" style="font-size: 16px">0: [met:-|id:hit1|val:-]</text>
<text x="380" y="320" fill="green" style="font-size: 18px">HP:0000924</text>
<text x="385" y="342" fill="green" style="font-size: 16px">2: [met:-|id:hit2|val:-]</text>
<text x="80" y="470" fill="green" style="font-size: 18px">HP:0000078</text>
<text x="85" y="492" fill="green" style="font-size: 16px">0: [met:-|id:hit1|val:-]</text>
<text x="380" y="470" fill="green" style="font-size: 18px">HP:0011842</text>
<text x="385" y="492" fill="green" style="font-size: 16px">2: [met:-|id:hit2|val:-]</text>
<text x="80" y="620" fill="green" style="font-size: 18px">HP:0012243</text>
<text x="85" y="642" fill="green" style="font-size: 16px">0: [met:-|id:hit1|val:-]</text>
<text x="380" y="620" fill="green" style="font-size: 18px">HP:0011844</text>
<text x="385" y="642" fill="green" style="font-size: 16px">2: [met:-|id:hit2|val:-]</text>
<text x="30" y="770" fill="green" style="font-size: 18px">HP:0000812</text>
<text x="35" y="792" fill="green" style="font-size: 16px">0: [met:-|id:hit1|val:-]</text>
<text x="230" y="770" fill="green" style="font-size: 18px">HP:0010460</text>
<text x="235" y="792" fill="green" style="font-size: 16px">0: [met:-|id:hit1|val:-]</text>
<text x="430" y="770" fill="green" style="font-size: 18px">HP:0002813</text>
<text x="435" y="792" fill="green" style="font-size: 16px">2: [met:-|id:hit2|val:-]</text>
<text x="230" y="920" fill="green" style="font-size: 18px">HP:0000008</text>
<text x="235" y="942" fill="green" style="font-size: 16px">0: [met:-|id:hit1|val:-]</text>
<circle cx="220" cy="20" r="5" stroke="black" stroke-width="1" fill="#fa0000" />
<circle cx="220" cy="170" r="5" stroke="black" stroke-width="1" fill="#fa0000" />
<circle cx="70" cy="320" r="5" stroke="black" stroke-width="1" fill="#fa0000" />
<circle cx="370" cy="320" r="5" stroke="black" stroke-width="1" fill="#fa0000" />
<circle cx="70" cy="470" r="5" stroke="black" stroke-width="1" fill="#fa0000" />
<circle cx="370" cy="470" r="5" stroke="black" stroke-width="1" fill="#fa0000" />
<circle cx="70" cy="620" r="5" stroke="black" stroke-width="1" fill="#fa0000" />
<circle cx="370" cy="620" r="5" stroke="black" stroke-width="1" fill="#fa0000" />
<circle cx="20" cy="770" r="5" stroke="black" stroke-width="1" fill="#fa0000" />
<circle cx="220" cy="770" r="5" stroke="black" stroke-width="1" fill="#fa0000" />
<circle cx="420" cy="770" r="5" stroke="black" stroke-width="1" fill="#fa0000" />
<circle cx="220" cy="920" r="5" stroke="black" stroke-width="1" fill="#fa0000" />
</svg>
